# xmcd CD database file
#
# Track frame offsets:
#	150
#	26325
#	53784
#	78135
#	103850
#	131222
#	161229
#	185663
#	214675
#
# Disc length: 3186 seconds
#
# Revision: 0
# Processed by: cddbd v1.5.2PL0 Copyright (c) Steve Scherf et al.
# Submitted via: CDex 1.70beta2
#
DISCID=790c7009
DTITLE=Ron Horton - It's a Gadget World
DYEAR=2009
DGENRE=Jazz
TTITLE0=It's a Gadget World
TTITLE1=Gaia
TTITLE2=Waiting for That
TTITLE3=Shorter
TTITLE4=9x9
TTITLE5=Toeing the Line
TTITLE6=Old West
TTITLE7=Chorale
TTITLE8=Laverne
EXTD=YEAR: 2009
EXTT0=
EXTT1=
EXTT2=
EXTT3=
EXTT4=
EXTT5=
EXTT6=
EXTT7=
EXTT8=
PLAYORDER=
